<?xml version="1.0" encoding="UTF-8" standalone="no"?>
<!DOCTYPE svg PUBLIC "-//W3C//DTD SVG 1.1//EN"
 "http://www.w3.org/Graphics/SVG/1.1/DTD/svg11.dtd">
<!-- Generated by graphviz version 2.43.0 (0)
 -->
<!-- Title: ExpansionStrategy&lt; T &gt; Pages: 1 -->
<svg width="452pt" height="82pt"
 viewBox="0.00 0.00 452.00 82.00" xmlns="http://www.w3.org/2000/svg" xmlns:xlink="http://www.w3.org/1999/xlink">
<g id="graph0" class="graph" transform="scale(1 1) rotate(0) translate(4 78)">
<title>ExpansionStrategy&lt; T &gt;</title>
<!-- Node1 -->
<g id="Node000001" class="node">
<title>Node1</title>
<g id="a_Node000001"><a xlink:title="Abstract base class for alpha&#45;expansion iteration strategies.">
<polygon fill="#999999" stroke="#666666" points="282.5,-74 145.5,-74 145.5,-55 282.5,-55 282.5,-74"/>
<text text-anchor="middle" x="214" y="-62" font-family="Helvetica,sans-Serif" font-size="10.00">ExpansionStrategy&lt; T &gt;</text>
</a>
</g>
</g>
<!-- Node2 -->
<g id="Node000002" class="node">
<title>Node2</title>
<g id="a_Node000002"><a xlink:href="classGreedyStrategy.html" target="_top" xlink:title="Expansion strategy that always picks the label with the greatest energy reduction.">
<polygon fill="white" stroke="#666666" points="122,-19 0,-19 0,0 122,0 122,-19"/>
<text text-anchor="middle" x="61" y="-7" font-family="Helvetica,sans-Serif" font-size="10.00">GreedyStrategy&lt; T &gt;</text>
</a>
</g>
</g>
<!-- Node1&#45;&gt;Node2 -->
<g id="edge1_Node000001_Node000002" class="edge">
<title>Node1&#45;&gt;Node2</title>
<g id="a_edge1_Node000001_Node000002"><a xlink:title=" ">
<path fill="none" stroke="#63b8ff" d="M179.85,-51.67C151.32,-41.79 111.31,-27.93 85.77,-19.08"/>
<polygon fill="#63b8ff" stroke="#63b8ff" points="178.82,-55.02 189.42,-54.98 181.11,-48.4 178.82,-55.02"/>
</a>
</g>
</g>
<!-- Node3 -->
<g id="Node000003" class="node">
<title>Node3</title>
<g id="a_Node000003"><a xlink:href="classRandomizedStrategy.html" target="_top" xlink:title="Expansion strategy that shuffles the label order randomly each cycle.">
<polygon fill="white" stroke="#666666" points="287.5,-19 140.5,-19 140.5,0 287.5,0 287.5,-19"/>
<text text-anchor="middle" x="214" y="-7" font-family="Helvetica,sans-Serif" font-size="10.00">RandomizedStrategy&lt; T &gt;</text>
</a>
</g>
</g>
<!-- Node1&#45;&gt;Node3 -->
<g id="edge2_Node000001_Node000003" class="edge">
<title>Node1&#45;&gt;Node3</title>
<g id="a_edge2_Node000001_Node000003"><a xlink:title=" ">
<path fill="none" stroke="#63b8ff" d="M214,-44.66C214,-35.93 214,-25.99 214,-19.09"/>
<polygon fill="#63b8ff" stroke="#63b8ff" points="210.5,-44.75 214,-54.75 217.5,-44.75 210.5,-44.75"/>
</a>
</g>
</g>
<!-- Node4 -->
<g id="Node000004" class="node">
<title>Node4</title>
<g id="a_Node000004"><a xlink:href="classSequentialStrategy.html" target="_top" xlink:title="Expansion strategy that cycles through labels in fixed order 0, 1, …, K&#45;1.">
<polygon fill="white" stroke="#666666" points="444,-19 306,-19 306,0 444,0 444,-19"/>
<text text-anchor="middle" x="375" y="-7" font-family="Helvetica,sans-Serif" font-size="10.00">SequentialStrategy&lt; T &gt;</text>
</a>
</g>
</g>
<!-- Node1&#45;&gt;Node4 -->
<g id="edge3_Node000001_Node000004" class="edge">
<title>Node1&#45;&gt;Node4</title>
<g id="a_edge3_Node000001_Node000004"><a xlink:title=" ">
<path fill="none" stroke="#63b8ff" d="M249.55,-51.8C279.59,-41.91 321.94,-27.97 348.93,-19.08"/>
<polygon fill="#63b8ff" stroke="#63b8ff" points="248.27,-48.53 239.87,-54.98 250.46,-55.18 248.27,-48.53"/>
</a>
</g>
</g>
</g>
</svg>
