<?xml version="1.0" encoding="UTF-8" standalone="no"?>
<!DOCTYPE svg PUBLIC "-//W3C//DTD SVG 1.1//EN"
 "http://www.w3.org/Graphics/SVG/1.1/DTD/svg11.dtd">
<!-- Generated by graphviz version 2.43.0 (0)
 -->
<!-- Title: Graphical Class Hierarchy Pages: 1 -->
<svg width="328pt" height="101pt"
 viewBox="0.00 0.00 328.00 101.00" xmlns="http://www.w3.org/2000/svg" xmlns:xlink="http://www.w3.org/1999/xlink">
<g id="graph0" class="graph" transform="scale(1 1) rotate(0) translate(4 97)">
<title>Graphical Class Hierarchy</title>
<!-- Node0 -->
<g id="Node000000" class="node">
<title>Node0</title>
<g id="a_Node000000"><a xlink:href="classExpansionStrategy.html" target="_top" xlink:title="Abstract base class for alpha&#45;expansion iteration strategies.">
<polygon fill="white" stroke="#666666" points="137,-56 0,-56 0,-37 137,-37 137,-56"/>
<text text-anchor="middle" x="68.5" y="-44" font-family="Helvetica,sans-Serif" font-size="10.00">ExpansionStrategy&lt; T &gt;</text>
</a>
</g>
</g>
<!-- Node1 -->
<g id="Node000001" class="node">
<title>Node1</title>
<g id="a_Node000001"><a xlink:href="classGreedyStrategy.html" target="_top" xlink:title="Expansion strategy that always picks the label with the greatest energy reduction.">
<polygon fill="white" stroke="#666666" points="307.5,-93 185.5,-93 185.5,-74 307.5,-74 307.5,-93"/>
<text text-anchor="middle" x="246.5" y="-81" font-family="Helvetica,sans-Serif" font-size="10.00">GreedyStrategy&lt; T &gt;</text>
</a>
</g>
</g>
<!-- Node0&#45;&gt;Node1 -->
<g id="edge1_Node000000_Node000001" class="edge">
<title>Node0&#45;&gt;Node1</title>
<g id="a_edge1_Node000000_Node000001"><a xlink:title=" ">
<path fill="none" stroke="#63b8ff" d="M124.93,-58.15C149.1,-63.23 177.1,-69.12 200.02,-73.94"/>
<polygon fill="#63b8ff" stroke="#63b8ff" points="125.33,-54.66 114.82,-56.03 123.89,-61.51 125.33,-54.66"/>
</a>
</g>
</g>
<!-- Node2 -->
<g id="Node000002" class="node">
<title>Node2</title>
<g id="a_Node000002"><a xlink:href="classRandomizedStrategy.html" target="_top" xlink:title="Expansion strategy that shuffles the label order randomly each cycle.">
<polygon fill="white" stroke="#666666" points="320,-56 173,-56 173,-37 320,-37 320,-56"/>
<text text-anchor="middle" x="246.5" y="-44" font-family="Helvetica,sans-Serif" font-size="10.00">RandomizedStrategy&lt; T &gt;</text>
</a>
</g>
</g>
<!-- Node0&#45;&gt;Node2 -->
<g id="edge2_Node000000_Node000002" class="edge">
<title>Node0&#45;&gt;Node2</title>
<g id="a_edge2_Node000000_Node000002"><a xlink:title=" ">
<path fill="none" stroke="#63b8ff" d="M147.32,-46.5C155.82,-46.5 164.44,-46.5 172.87,-46.5"/>
<polygon fill="#63b8ff" stroke="#63b8ff" points="147.04,-43 137.04,-46.5 147.04,-50 147.04,-43"/>
</a>
</g>
</g>
<!-- Node3 -->
<g id="Node000003" class="node">
<title>Node3</title>
<g id="a_Node000003"><a xlink:href="classSequentialStrategy.html" target="_top" xlink:title="Expansion strategy that cycles through labels in fixed order 0, 1, …, K&#45;1.">
<polygon fill="white" stroke="#666666" points="315.5,-19 177.5,-19 177.5,0 315.5,0 315.5,-19"/>
<text text-anchor="middle" x="246.5" y="-7" font-family="Helvetica,sans-Serif" font-size="10.00">SequentialStrategy&lt; T &gt;</text>
</a>
</g>
</g>
<!-- Node0&#45;&gt;Node3 -->
<g id="edge3_Node000000_Node000003" class="edge">
<title>Node0&#45;&gt;Node3</title>
<g id="a_edge3_Node000000_Node000003"><a xlink:title=" ">
<path fill="none" stroke="#63b8ff" d="M124.93,-34.85C149.1,-29.77 177.1,-23.88 200.02,-19.06"/>
<polygon fill="#63b8ff" stroke="#63b8ff" points="123.89,-31.49 114.82,-36.97 125.33,-38.34 123.89,-31.49"/>
</a>
</g>
</g>
</g>
</svg>
