<?xml version="1.0" encoding="UTF-8" standalone="no"?>
<!DOCTYPE svg PUBLIC "-//W3C//DTD SVG 1.1//EN"
 "http://www.w3.org/Graphics/SVG/1.1/DTD/svg11.dtd">
<!-- Generated by graphviz version 2.43.0 (0)
 -->
<!-- Title: src/solvers/MaxFlowSolver.hpp Pages: 1 -->
<svg width="694pt" height="148pt"
 viewBox="0.00 0.00 693.50 148.00" xmlns="http://www.w3.org/2000/svg" xmlns:xlink="http://www.w3.org/1999/xlink">
<g id="graph0" class="graph" transform="scale(1 1) rotate(0) translate(4 144)">
<title>src/solvers/MaxFlowSolver.hpp</title>
<!-- Node1 -->
<g id="Node000001" class="node">
<title>Node1</title>
<g id="a_Node000001"><a xlink:title=" ">
<polygon fill="#999999" stroke="#666666" points="521.5,-140 354.5,-140 354.5,-121 521.5,-121 521.5,-140"/>
<text text-anchor="middle" x="438" y="-128" font-family="Helvetica,sans-Serif" font-size="10.00">src/solvers/MaxFlowSolver.hpp</text>
</a>
</g>
</g>
<!-- Node2 -->
<g id="Node000002" class="node">
<title>Node2</title>
<g id="a_Node000002"><a xlink:href="AlphaExpansion_8hpp.html" target="_top" xlink:title=" ">
<polygon fill="white" stroke="#666666" points="351.5,-85 194.5,-85 194.5,-66 351.5,-66 351.5,-85"/>
<text text-anchor="middle" x="273" y="-73" font-family="Helvetica,sans-Serif" font-size="10.00">src/core/AlphaExpansion.hpp</text>
</a>
</g>
</g>
<!-- Node1&#45;&gt;Node2 -->
<g id="edge1_Node000001_Node000002" class="edge">
<title>Node1&#45;&gt;Node2</title>
<g id="a_edge1_Node000001_Node000002"><a xlink:title=" ">
<path fill="none" stroke="#63b8ff" d="M401.57,-117.8C370.78,-107.91 327.38,-93.97 299.72,-85.08"/>
<polygon fill="#63b8ff" stroke="#63b8ff" points="400.9,-121.26 411.49,-120.98 403.04,-114.59 400.9,-121.26"/>
</a>
</g>
</g>
<!-- Node6 -->
<g id="Node000006" class="node">
<title>Node6</title>
<g id="a_Node000006"><a xlink:href="BKSolver_8hpp.html" target="_top" xlink:title=" ">
<polygon fill="white" stroke="#666666" points="506.5,-85 369.5,-85 369.5,-66 506.5,-66 506.5,-85"/>
<text text-anchor="middle" x="438" y="-73" font-family="Helvetica,sans-Serif" font-size="10.00">src/solvers/BKSolver.hpp</text>
</a>
</g>
</g>
<!-- Node1&#45;&gt;Node6 -->
<g id="edge5_Node000001_Node000006" class="edge">
<title>Node1&#45;&gt;Node6</title>
<g id="a_edge5_Node000001_Node000006"><a xlink:title=" ">
<path fill="none" stroke="#63b8ff" d="M438,-110.66C438,-101.93 438,-91.99 438,-85.09"/>
<polygon fill="#63b8ff" stroke="#63b8ff" points="434.5,-110.75 438,-120.75 441.5,-110.75 434.5,-110.75"/>
</a>
</g>
</g>
<!-- Node7 -->
<g id="Node000007" class="node">
<title>Node7</title>
<g id="a_Node000007"><a xlink:href="ORToolsSolver_8hpp.html" target="_top" xlink:title=" ">
<polygon fill="white" stroke="#666666" points="685.5,-85 524.5,-85 524.5,-66 685.5,-66 685.5,-85"/>
<text text-anchor="middle" x="605" y="-73" font-family="Helvetica,sans-Serif" font-size="10.00">src/solvers/ORToolsSolver.hpp</text>
</a>
</g>
</g>
<!-- Node1&#45;&gt;Node7 -->
<g id="edge6_Node000001_Node000007" class="edge">
<title>Node1&#45;&gt;Node7</title>
<g id="a_edge6_Node000001_Node000007"><a xlink:title=" ">
<path fill="none" stroke="#63b8ff" d="M474.46,-117.93C505.66,-108.03 549.84,-94.01 577.96,-85.08"/>
<polygon fill="#63b8ff" stroke="#63b8ff" points="473.3,-114.62 464.83,-120.98 475.42,-121.3 473.3,-114.62"/>
</a>
</g>
</g>
<!-- Node3 -->
<g id="Node000003" class="node">
<title>Node3</title>
<g id="a_Node000003"><a xlink:href="GreedyStrategy_8hpp.html" target="_top" xlink:title=" ">
<polygon fill="white" stroke="#666666" points="182,-24.5 0,-24.5 0,-5.5 182,-5.5 182,-24.5"/>
<text text-anchor="middle" x="91" y="-12.5" font-family="Helvetica,sans-Serif" font-size="10.00">src/strategies/GreedyStrategy.hpp</text>
</a>
</g>
</g>
<!-- Node2&#45;&gt;Node3 -->
<g id="edge2_Node000002_Node000003" class="edge">
<title>Node2&#45;&gt;Node3</title>
<g id="a_edge2_Node000002_Node000003"><a xlink:title=" ">
<path fill="none" stroke="#63b8ff" d="M236.65,-62.82C201.45,-51.5 148.92,-34.62 117.5,-24.52"/>
<polygon fill="#63b8ff" stroke="#63b8ff" points="235.94,-66.27 246.54,-65.99 238.09,-59.6 235.94,-66.27"/>
</a>
</g>
</g>
<!-- Node4 -->
<g id="Node000004" class="node">
<title>Node4</title>
<g id="a_Node000004"><a xlink:href="RandomizedStrategy_8hpp.html" target="_top" xlink:title=" ">
<polygon fill="white" stroke="#666666" points="346,-30 200,-30 200,0 346,0 346,-30"/>
<text text-anchor="start" x="208" y="-18" font-family="Helvetica,sans-Serif" font-size="10.00">src/strategies/Randomized</text>
<text text-anchor="middle" x="273" y="-7" font-family="Helvetica,sans-Serif" font-size="10.00">Strategy.hpp</text>
</a>
</g>
</g>
<!-- Node2&#45;&gt;Node4 -->
<g id="edge3_Node000002_Node000004" class="edge">
<title>Node2&#45;&gt;Node4</title>
<g id="a_edge3_Node000002_Node000004"><a xlink:title=" ">
<path fill="none" stroke="#63b8ff" d="M273,-55.65C273,-47.36 273,-37.78 273,-30.11"/>
<polygon fill="#63b8ff" stroke="#63b8ff" points="269.5,-55.87 273,-65.87 276.5,-55.87 269.5,-55.87"/>
</a>
</g>
</g>
<!-- Node5 -->
<g id="Node000005" class="node">
<title>Node5</title>
<g id="a_Node000005"><a xlink:href="SequentialStrategy_8hpp.html" target="_top" xlink:title=" ">
<polygon fill="white" stroke="#666666" points="501.5,-30 364.5,-30 364.5,0 501.5,0 501.5,-30"/>
<text text-anchor="start" x="372.5" y="-18" font-family="Helvetica,sans-Serif" font-size="10.00">src/strategies/Sequential</text>
<text text-anchor="middle" x="433" y="-7" font-family="Helvetica,sans-Serif" font-size="10.00">Strategy.hpp</text>
</a>
</g>
</g>
<!-- Node2&#45;&gt;Node5 -->
<g id="edge4_Node000002_Node000005" class="edge">
<title>Node2&#45;&gt;Node5</title>
<g id="a_edge4_Node000002_Node000005"><a xlink:title=" ">
<path fill="none" stroke="#63b8ff" d="M305.94,-62.46C331.67,-53.05 367.48,-39.95 394.53,-30.06"/>
<polygon fill="#63b8ff" stroke="#63b8ff" points="304.46,-59.27 296.27,-65.99 306.86,-65.85 304.46,-59.27"/>
</a>
</g>
</g>
</g>
</svg>
