<?xml version="1.0" encoding="UTF-8" standalone="no"?>
<!DOCTYPE svg PUBLIC "-//W3C//DTD SVG 1.1//EN"
 "http://www.w3.org/Graphics/SVG/1.1/DTD/svg11.dtd">
<!-- Generated by graphviz version 2.43.0 (0)
 -->
<!-- Title: src/strategies/RandomizedStrategy.hpp Pages: 1 -->
<svg width="685pt" height="203pt"
 viewBox="0.00 0.00 684.63 203.00" xmlns="http://www.w3.org/2000/svg" xmlns:xlink="http://www.w3.org/1999/xlink">
<g id="graph0" class="graph" transform="scale(1 1) rotate(0) translate(4 199)">
<title>src/strategies/RandomizedStrategy.hpp</title>
<!-- Node1 -->
<g id="Node000001" class="node">
<title>Node1</title>
<g id="a_Node000001"><a xlink:title=" ">
<polygon fill="#999999" stroke="#666666" points="499.63,-195 353.63,-195 353.63,-165 499.63,-165 499.63,-195"/>
<text text-anchor="start" x="361.63" y="-183" font-family="Helvetica,sans-Serif" font-size="10.00">src/strategies/Randomized</text>
<text text-anchor="middle" x="426.63" y="-172" font-family="Helvetica,sans-Serif" font-size="10.00">Strategy.hpp</text>
</a>
</g>
</g>
<!-- Node2 -->
<g id="Node000002" class="node">
<title>Node2</title>
<g id="a_Node000002"><a xlink:href="AlphaExpansion_8hpp.html" target="_top" xlink:title=" ">
<polygon fill="white" stroke="#666666" points="250.63,-129 110.63,-129 110.63,-110 250.63,-110 250.63,-129"/>
<text text-anchor="middle" x="180.63" y="-117" font-family="Helvetica,sans-Serif" font-size="10.00">core/AlphaExpansion.hpp</text>
</a>
</g>
</g>
<!-- Node1&#45;&gt;Node2 -->
<g id="edge1_Node000001_Node000002" class="edge">
<title>Node1&#45;&gt;Node2</title>
<g id="a_edge1_Node000001_Node000002"><a xlink:title=" ">
<path fill="none" stroke="#63b8ff" d="M367.71,-164.99C324.43,-154.7 266.46,-140.91 226.58,-131.43"/>
<polygon fill="#63b8ff" stroke="#63b8ff" points="227.14,-127.96 216.6,-129.05 225.52,-134.77 227.14,-127.96"/>
</a>
</g>
</g>
<!-- Node4 -->
<g id="Node000004" class="node">
<title>Node4</title>
<g id="a_Node000004"><a xlink:title=" ">
<polygon fill="#e0e0e0" stroke="#999999" points="88.13,-19 41.13,-19 41.13,0 88.13,0 88.13,-19"/>
<text text-anchor="middle" x="64.63" y="-7" font-family="Helvetica,sans-Serif" font-size="10.00">vector</text>
</a>
</g>
</g>
<!-- Node1&#45;&gt;Node4 -->
<g id="edge13_Node000001_Node000004" class="edge">
<title>Node1&#45;&gt;Node4</title>
<g id="a_edge13_Node000001_Node000004"><a xlink:title=" ">
<path fill="none" stroke="#63b8ff" d="M353.53,-175.24C286.46,-170.05 185.15,-157.8 101.63,-129 54.42,-112.72 28.87,-117.1 3.63,-74 -7.94,-54.23 14.93,-35.85 35.89,-24.01"/>
<polygon fill="#63b8ff" stroke="#63b8ff" points="37.76,-26.98 44.95,-19.19 34.48,-20.79 37.76,-26.98"/>
</a>
</g>
</g>
<!-- Node11 -->
<g id="Node000011" class="node">
<title>Node11</title>
<g id="a_Node000011"><a xlink:href="ExpansionStrategy_8hpp.html" target="_top" xlink:title=" ">
<polygon fill="white" stroke="#666666" points="448.13,-129 269.13,-129 269.13,-110 448.13,-110 448.13,-129"/>
<text text-anchor="middle" x="358.63" y="-117" font-family="Helvetica,sans-Serif" font-size="10.00">strategies/ExpansionStrategy.hpp</text>
</a>
</g>
</g>
<!-- Node1&#45;&gt;Node11 -->
<g id="edge12_Node000001_Node000011" class="edge">
<title>Node1&#45;&gt;Node11</title>
<g id="a_edge12_Node000001_Node000011"><a xlink:title=" ">
<path fill="none" stroke="#63b8ff" d="M410.17,-164.84C400,-156.09 386.94,-144.85 376.52,-135.88"/>
<polygon fill="#63b8ff" stroke="#63b8ff" points="378.69,-133.13 368.82,-129.27 374.12,-138.44 378.69,-133.13"/>
</a>
</g>
</g>
<!-- Node12 -->
<g id="Node000012" class="node">
<title>Node12</title>
<g id="a_Node000012"><a xlink:title=" ">
<polygon fill="#e0e0e0" stroke="#999999" points="522.63,-129 466.63,-129 466.63,-110 522.63,-110 522.63,-129"/>
<text text-anchor="middle" x="494.63" y="-117" font-family="Helvetica,sans-Serif" font-size="10.00">numeric</text>
</a>
</g>
</g>
<!-- Node1&#45;&gt;Node12 -->
<g id="edge14_Node000001_Node000012" class="edge">
<title>Node1&#45;&gt;Node12</title>
<g id="a_edge14_Node000001_Node000012"><a xlink:title=" ">
<path fill="none" stroke="#63b8ff" d="M443.09,-164.84C453.27,-156.09 466.33,-144.85 476.75,-135.88"/>
<polygon fill="#63b8ff" stroke="#63b8ff" points="479.15,-138.44 484.44,-129.27 474.58,-133.13 479.15,-138.44"/>
</a>
</g>
</g>
<!-- Node13 -->
<g id="Node000013" class="node">
<title>Node13</title>
<g id="a_Node000013"><a xlink:title=" ">
<polygon fill="#e0e0e0" stroke="#999999" points="594.63,-129 540.63,-129 540.63,-110 594.63,-110 594.63,-129"/>
<text text-anchor="middle" x="567.63" y="-117" font-family="Helvetica,sans-Serif" font-size="10.00">random</text>
</a>
</g>
</g>
<!-- Node1&#45;&gt;Node13 -->
<g id="edge15_Node000001_Node000013" class="edge">
<title>Node1&#45;&gt;Node13</title>
<g id="a_edge15_Node000001_Node000013"><a xlink:title=" ">
<path fill="none" stroke="#63b8ff" d="M460.41,-164.99C483.83,-155.27 514.75,-142.44 537.37,-133.06"/>
<polygon fill="#63b8ff" stroke="#63b8ff" points="538.92,-136.2 546.81,-129.14 536.23,-129.74 538.92,-136.2"/>
</a>
</g>
</g>
<!-- Node14 -->
<g id="Node000014" class="node">
<title>Node14</title>
<g id="a_Node000014"><a xlink:title=" ">
<polygon fill="#e0e0e0" stroke="#999999" points="676.63,-129 612.63,-129 612.63,-110 676.63,-110 676.63,-129"/>
<text text-anchor="middle" x="644.63" y="-117" font-family="Helvetica,sans-Serif" font-size="10.00">algorithm</text>
</a>
</g>
</g>
<!-- Node1&#45;&gt;Node14 -->
<g id="edge16_Node000001_Node000014" class="edge">
<title>Node1&#45;&gt;Node14</title>
<g id="a_edge16_Node000001_Node000014"><a xlink:title=" ">
<path fill="none" stroke="#63b8ff" d="M478.85,-164.99C516.8,-154.8 567.49,-141.2 602.78,-131.73"/>
<polygon fill="#63b8ff" stroke="#63b8ff" points="604.01,-135.03 612.76,-129.05 602.19,-128.27 604.01,-135.03"/>
</a>
</g>
</g>
<!-- Node3 -->
<g id="Node000003" class="node">
<title>Node3</title>
<g id="a_Node000003"><a xlink:href="EnergyModel_8hpp.html" target="_top" xlink:title=" ">
<polygon fill="white" stroke="#666666" points="301.13,-74 176.13,-74 176.13,-55 301.13,-55 301.13,-74"/>
<text text-anchor="middle" x="238.63" y="-62" font-family="Helvetica,sans-Serif" font-size="10.00">core/EnergyModel.hpp</text>
</a>
</g>
</g>
<!-- Node2&#45;&gt;Node3 -->
<g id="edge2_Node000002_Node000003" class="edge">
<title>Node2&#45;&gt;Node3</title>
<g id="a_edge2_Node000002_Node000003"><a xlink:title=" ">
<path fill="none" stroke="#63b8ff" d="M189.95,-109.98C198.44,-102.23 211.19,-90.58 221.52,-81.14"/>
<polygon fill="#63b8ff" stroke="#63b8ff" points="224.12,-83.5 229.15,-74.17 219.4,-78.33 224.12,-83.5"/>
</a>
</g>
</g>
<!-- Node5 -->
<g id="Node000005" class="node">
<title>Node5</title>
<g id="a_Node000005"><a xlink:title=" ">
<polygon fill="#e0e0e0" stroke="#999999" points="362.13,-19 297.13,-19 297.13,0 362.13,0 362.13,-19"/>
<text text-anchor="middle" x="329.63" y="-7" font-family="Helvetica,sans-Serif" font-size="10.00">functional</text>
</a>
</g>
</g>
<!-- Node2&#45;&gt;Node5 -->
<g id="edge10_Node000002_Node000005" class="edge">
<title>Node2&#45;&gt;Node5</title>
<g id="a_edge10_Node000002_Node000005"><a xlink:title=" ">
<path fill="none" stroke="#63b8ff" d="M240.26,-109.98C264.6,-103.71 291.29,-92.84 309.63,-74 321.34,-61.97 326.2,-43.16 328.21,-29.13"/>
<polygon fill="#63b8ff" stroke="#63b8ff" points="331.7,-29.45 329.3,-19.13 324.74,-28.69 331.7,-29.45"/>
</a>
</g>
</g>
<!-- Node8 -->
<g id="Node000008" class="node">
<title>Node8</title>
<g id="a_Node000008"><a xlink:href="MaxFlowSolver_8hpp.html" target="_top" xlink:title=" ">
<polygon fill="white" stroke="#666666" points="507.63,-74 357.63,-74 357.63,-55 507.63,-55 507.63,-74"/>
<text text-anchor="middle" x="432.63" y="-62" font-family="Helvetica,sans-Serif" font-size="10.00">solvers/MaxFlowSolver.hpp</text>
</a>
</g>
</g>
<!-- Node2&#45;&gt;Node8 -->
<g id="edge7_Node000002_Node000008" class="edge">
<title>Node2&#45;&gt;Node8</title>
<g id="a_edge7_Node000002_Node000008"><a xlink:title=" ">
<path fill="none" stroke="#63b8ff" d="M221.12,-109.98C264.8,-100.8 334.45,-86.15 381.79,-76.19"/>
<polygon fill="#63b8ff" stroke="#63b8ff" points="382.76,-79.57 391.83,-74.08 381.32,-72.72 382.76,-79.57"/>
</a>
</g>
</g>
<!-- Node9 -->
<g id="Node000009" class="node">
<title>Node9</title>
<g id="a_Node000009"><a xlink:title=" ">
<polygon fill="#e0e0e0" stroke="#999999" points="70.63,-74 12.63,-74 12.63,-55 70.63,-55 70.63,-74"/>
<text text-anchor="middle" x="41.63" y="-62" font-family="Helvetica,sans-Serif" font-size="10.00">memory</text>
</a>
</g>
</g>
<!-- Node2&#45;&gt;Node9 -->
<g id="edge9_Node000002_Node000009" class="edge">
<title>Node2&#45;&gt;Node9</title>
<g id="a_edge9_Node000002_Node000009"><a xlink:title=" ">
<path fill="none" stroke="#63b8ff" d="M158.3,-109.98C135.44,-101.27 99.68,-87.63 73.77,-77.75"/>
<polygon fill="#63b8ff" stroke="#63b8ff" points="74.96,-74.46 64.37,-74.17 72.47,-81 74.96,-74.46"/>
</a>
</g>
</g>
<!-- Node10 -->
<g id="Node000010" class="node">
<title>Node10</title>
<g id="a_Node000010"><a xlink:title=" ">
<polygon fill="#e0e0e0" stroke="#999999" points="158.13,-74 89.13,-74 89.13,-55 158.13,-55 158.13,-74"/>
<text text-anchor="middle" x="123.63" y="-62" font-family="Helvetica,sans-Serif" font-size="10.00">type_traits</text>
</a>
</g>
</g>
<!-- Node2&#45;&gt;Node10 -->
<g id="edge11_Node000002_Node000010" class="edge">
<title>Node2&#45;&gt;Node10</title>
<g id="a_edge11_Node000002_Node000010"><a xlink:title=" ">
<path fill="none" stroke="#63b8ff" d="M171.48,-109.98C163.13,-102.23 150.6,-90.58 140.46,-81.14"/>
<polygon fill="#63b8ff" stroke="#63b8ff" points="142.67,-78.42 132.96,-74.17 137.9,-83.54 142.67,-78.42"/>
</a>
</g>
</g>
<!-- Node3&#45;&gt;Node4 -->
<g id="edge3_Node000003_Node000004" class="edge">
<title>Node3&#45;&gt;Node4</title>
<g id="a_edge3_Node000003_Node000004"><a xlink:title=" ">
<path fill="none" stroke="#63b8ff" d="M210.68,-54.98C179.95,-45.62 130.6,-30.59 97.9,-20.63"/>
<polygon fill="#63b8ff" stroke="#63b8ff" points="98.91,-17.28 88.33,-17.72 96.87,-23.98 98.91,-17.28"/>
</a>
</g>
</g>
<!-- Node3&#45;&gt;Node5 -->
<g id="edge4_Node000003_Node000005" class="edge">
<title>Node3&#45;&gt;Node5</title>
<g id="a_edge4_Node000003_Node000005"><a xlink:title=" ">
<path fill="none" stroke="#63b8ff" d="M253.25,-54.98C267.5,-46.69 289.39,-33.94 306.08,-24.22"/>
<polygon fill="#63b8ff" stroke="#63b8ff" points="307.87,-27.23 314.75,-19.17 304.34,-21.18 307.87,-27.23"/>
</a>
</g>
</g>
<!-- Node6 -->
<g id="Node000006" class="node">
<title>Node6</title>
<g id="a_Node000006"><a xlink:title=" ">
<polygon fill="#e0e0e0" stroke="#999999" points="279.13,-19 186.13,-19 186.13,0 279.13,0 279.13,-19"/>
<text text-anchor="middle" x="232.63" y="-7" font-family="Helvetica,sans-Serif" font-size="10.00">unordered_map</text>
</a>
</g>
</g>
<!-- Node3&#45;&gt;Node6 -->
<g id="edge5_Node000003_Node000006" class="edge">
<title>Node3&#45;&gt;Node6</title>
<g id="a_edge5_Node000003_Node000006"><a xlink:title=" ">
<path fill="none" stroke="#63b8ff" d="M237.64,-54.75C236.86,-47.8 235.73,-37.85 234.74,-29.13"/>
<polygon fill="#63b8ff" stroke="#63b8ff" points="238.21,-28.63 233.61,-19.09 231.25,-29.42 238.21,-28.63"/>
</a>
</g>
</g>
<!-- Node7 -->
<g id="Node000007" class="node">
<title>Node7</title>
<g id="a_Node000007"><a xlink:title=" ">
<polygon fill="#e0e0e0" stroke="#999999" points="443.63,-19 393.63,-19 393.63,0 443.63,0 443.63,-19"/>
<text text-anchor="middle" x="418.63" y="-7" font-family="Helvetica,sans-Serif" font-size="10.00">cstdint</text>
</a>
</g>
</g>
<!-- Node3&#45;&gt;Node7 -->
<g id="edge6_Node000003_Node000007" class="edge">
<title>Node3&#45;&gt;Node7</title>
<g id="a_edge6_Node000003_Node000007"><a xlink:title=" ">
<path fill="none" stroke="#63b8ff" d="M267.55,-54.98C299.17,-45.68 349.81,-30.76 383.64,-20.8"/>
<polygon fill="#63b8ff" stroke="#63b8ff" points="384.96,-24.07 393.56,-17.88 382.98,-17.35 384.96,-24.07"/>
</a>
</g>
</g>
<!-- Node8&#45;&gt;Node7 -->
<g id="edge8_Node000008_Node000007" class="edge">
<title>Node8&#45;&gt;Node7</title>
<g id="a_edge8_Node000008_Node000007"><a xlink:title=" ">
<path fill="none" stroke="#63b8ff" d="M430.32,-54.75C428.47,-47.72 425.8,-37.62 423.48,-28.84"/>
<polygon fill="#63b8ff" stroke="#63b8ff" points="426.84,-27.86 420.9,-19.09 420.07,-29.65 426.84,-27.86"/>
</a>
</g>
</g>
</g>
</svg>
