<?xml version="1.0" encoding="UTF-8" standalone="no"?>
<!DOCTYPE svg PUBLIC "-//W3C//DTD SVG 1.1//EN"
 "http://www.w3.org/Graphics/SVG/1.1/DTD/svg11.dtd">
<!-- Generated by graphviz version 2.43.0 (0)
 -->
<!-- Title: MaxFlowSolver&lt; T &gt; Pages: 1 -->
<svg width="230pt" height="82pt"
 viewBox="0.00 0.00 229.50 82.00" xmlns="http://www.w3.org/2000/svg" xmlns:xlink="http://www.w3.org/1999/xlink">
<g id="graph0" class="graph" transform="scale(1 1) rotate(0) translate(4 78)">
<title>MaxFlowSolver&lt; T &gt;</title>
<!-- Node1 -->
<g id="Node000001" class="node">
<title>Node1</title>
<g id="a_Node000001"><a xlink:title="Abstract interface for a binary max&#45;flow / QPBO solver.">
<polygon fill="#999999" stroke="#666666" points="164.5,-74 44.5,-74 44.5,-55 164.5,-55 164.5,-74"/>
<text text-anchor="middle" x="104.5" y="-62" font-family="Helvetica,sans-Serif" font-size="10.00">MaxFlowSolver&lt; T &gt;</text>
</a>
</g>
</g>
<!-- Node2 -->
<g id="Node000002" class="node">
<title>Node2</title>
<g id="a_Node000002"><a xlink:href="classBKSolver.html" target="_top" xlink:title="MaxFlowSolver backed by the Boykov–Kolmogorov max&#45;flow algorithm.">
<polygon fill="white" stroke="#666666" points="89,-19 0,-19 0,0 89,0 89,-19"/>
<text text-anchor="middle" x="44.5" y="-7" font-family="Helvetica,sans-Serif" font-size="10.00">BKSolver&lt; T &gt;</text>
</a>
</g>
</g>
<!-- Node1&#45;&gt;Node2 -->
<g id="edge1_Node000001_Node000002" class="edge">
<title>Node1&#45;&gt;Node2</title>
<g id="a_edge1_Node000001_Node000002"><a xlink:title=" ">
<path fill="none" stroke="#63b8ff" d="M87.32,-48.32C76.62,-38.87 63.24,-27.06 54.32,-19.17"/>
<polygon fill="#63b8ff" stroke="#63b8ff" points="85.05,-50.99 94.86,-54.98 89.68,-45.74 85.05,-50.99"/>
</a>
</g>
</g>
<!-- Node3 -->
<g id="Node000003" class="node">
<title>Node3</title>
<g id="a_Node000003"><a xlink:href="classORToolsSolver.html" target="_top" xlink:title="MaxFlowSolver backed by Google OR&#45;Tools SimpleMaxFlow.">
<polygon fill="white" stroke="#666666" points="221.5,-19 107.5,-19 107.5,0 221.5,0 221.5,-19"/>
<text text-anchor="middle" x="164.5" y="-7" font-family="Helvetica,sans-Serif" font-size="10.00">ORToolsSolver&lt; T &gt;</text>
</a>
</g>
</g>
<!-- Node1&#45;&gt;Node3 -->
<g id="edge2_Node000001_Node000003" class="edge">
<title>Node1&#45;&gt;Node3</title>
<g id="a_edge2_Node000001_Node000003"><a xlink:title=" ">
<path fill="none" stroke="#63b8ff" d="M121.68,-48.32C132.38,-38.87 145.76,-27.06 154.68,-19.17"/>
<polygon fill="#63b8ff" stroke="#63b8ff" points="119.32,-45.74 114.14,-54.98 123.95,-50.99 119.32,-45.74"/>
</a>
</g>
</g>
</g>
</svg>
