<?xml version="1.0" encoding="UTF-8" standalone="no"?>
<!DOCTYPE svg PUBLIC "-//W3C//DTD SVG 1.1//EN"
 "http://www.w3.org/Graphics/SVG/1.1/DTD/svg11.dtd">
<!-- Generated by graphviz version 2.43.0 (0)
 -->
<!-- Title: src/strategies/GreedyStrategy.hpp Pages: 1 -->
<svg width="675pt" height="192pt"
 viewBox="0.00 0.00 675.00 192.00" xmlns="http://www.w3.org/2000/svg" xmlns:xlink="http://www.w3.org/1999/xlink">
<g id="graph0" class="graph" transform="scale(1 1) rotate(0) translate(4 188)">
<title>src/strategies/GreedyStrategy.hpp</title>
<!-- Node1 -->
<g id="Node000001" class="node">
<title>Node1</title>
<g id="a_Node000001"><a xlink:title=" ">
<polygon fill="#999999" stroke="#666666" points="550.5,-184 368.5,-184 368.5,-165 550.5,-165 550.5,-184"/>
<text text-anchor="middle" x="459.5" y="-172" font-family="Helvetica,sans-Serif" font-size="10.00">src/strategies/GreedyStrategy.hpp</text>
</a>
</g>
</g>
<!-- Node2 -->
<g id="Node000002" class="node">
<title>Node2</title>
<g id="a_Node000002"><a xlink:href="AlphaExpansion_8hpp.html" target="_top" xlink:title=" ">
<polygon fill="white" stroke="#666666" points="405.5,-129 265.5,-129 265.5,-110 405.5,-110 405.5,-129"/>
<text text-anchor="middle" x="335.5" y="-117" font-family="Helvetica,sans-Serif" font-size="10.00">core/AlphaExpansion.hpp</text>
</a>
</g>
</g>
<!-- Node1&#45;&gt;Node2 -->
<g id="edge1_Node000001_Node000002" class="edge">
<title>Node1&#45;&gt;Node2</title>
<g id="a_edge1_Node000001_Node000002"><a xlink:title=" ">
<path fill="none" stroke="#63b8ff" d="M439.58,-164.98C419.45,-156.38 388.12,-142.99 365.09,-133.15"/>
<polygon fill="#63b8ff" stroke="#63b8ff" points="366.36,-129.88 355.79,-129.17 363.6,-136.32 366.36,-129.88"/>
</a>
</g>
</g>
<!-- Node10 -->
<g id="Node000010" class="node">
<title>Node10</title>
<g id="a_Node000010"><a xlink:title=" ">
<polygon fill="#e0e0e0" stroke="#999999" points="521,-74 452,-74 452,-55 521,-55 521,-74"/>
<text text-anchor="middle" x="486.5" y="-62" font-family="Helvetica,sans-Serif" font-size="10.00">type_traits</text>
</a>
</g>
</g>
<!-- Node1&#45;&gt;Node10 -->
<g id="edge13_Node000001_Node000010" class="edge">
<title>Node1&#45;&gt;Node10</title>
<g id="a_edge13_Node000001_Node000010"><a xlink:title=" ">
<path fill="none" stroke="#63b8ff" d="M461.71,-164.66C466.1,-147.09 476.01,-107.45 481.89,-83.95"/>
<polygon fill="#63b8ff" stroke="#63b8ff" points="485.31,-84.71 484.34,-74.16 478.51,-83.01 485.31,-84.71"/>
</a>
</g>
</g>
<!-- Node11 -->
<g id="Node000011" class="node">
<title>Node11</title>
<g id="a_Node000011"><a xlink:href="ExpansionStrategy_8hpp.html" target="_top" xlink:title=" ">
<polygon fill="white" stroke="#666666" points="667,-129 488,-129 488,-110 667,-110 667,-129"/>
<text text-anchor="middle" x="577.5" y="-117" font-family="Helvetica,sans-Serif" font-size="10.00">strategies/ExpansionStrategy.hpp</text>
</a>
</g>
</g>
<!-- Node1&#45;&gt;Node11 -->
<g id="edge12_Node000001_Node000011" class="edge">
<title>Node1&#45;&gt;Node11</title>
<g id="a_edge12_Node000001_Node000011"><a xlink:title=" ">
<path fill="none" stroke="#63b8ff" d="M478.46,-164.98C497.53,-156.42 527.16,-143.11 549.05,-133.28"/>
<polygon fill="#63b8ff" stroke="#63b8ff" points="550.51,-136.46 558.2,-129.17 547.64,-130.07 550.51,-136.46"/>
</a>
</g>
</g>
<!-- Node3 -->
<g id="Node000003" class="node">
<title>Node3</title>
<g id="a_Node000003"><a xlink:href="EnergyModel_8hpp.html" target="_top" xlink:title=" ">
<polygon fill="white" stroke="#666666" points="189,-74 64,-74 64,-55 189,-55 189,-74"/>
<text text-anchor="middle" x="126.5" y="-62" font-family="Helvetica,sans-Serif" font-size="10.00">core/EnergyModel.hpp</text>
</a>
</g>
</g>
<!-- Node2&#45;&gt;Node3 -->
<g id="edge2_Node000002_Node000003" class="edge">
<title>Node2&#45;&gt;Node3</title>
<g id="a_edge2_Node000002_Node000003"><a xlink:title=" ">
<path fill="none" stroke="#63b8ff" d="M301.92,-109.98C266.15,-100.91 209.38,-86.52 170.16,-76.57"/>
<polygon fill="#63b8ff" stroke="#63b8ff" points="170.9,-73.15 160.34,-74.08 169.18,-79.93 170.9,-73.15"/>
</a>
</g>
</g>
<!-- Node5 -->
<g id="Node000005" class="node">
<title>Node5</title>
<g id="a_Node000005"><a xlink:title=" ">
<polygon fill="#e0e0e0" stroke="#999999" points="65,-19 0,-19 0,0 65,0 65,-19"/>
<text text-anchor="middle" x="32.5" y="-7" font-family="Helvetica,sans-Serif" font-size="10.00">functional</text>
</a>
</g>
</g>
<!-- Node2&#45;&gt;Node5 -->
<g id="edge10_Node000002_Node000005" class="edge">
<title>Node2&#45;&gt;Node5</title>
<g id="a_edge10_Node000002_Node000005"><a xlink:title=" ">
<path fill="none" stroke="#63b8ff" d="M265.4,-115.51C192.79,-111.02 85.65,-100.08 54.5,-74 41.37,-63.01 36.07,-43.75 33.93,-29.31"/>
<polygon fill="#63b8ff" stroke="#63b8ff" points="37.37,-28.58 32.8,-19.02 30.41,-29.34 37.37,-28.58"/>
</a>
</g>
</g>
<!-- Node8 -->
<g id="Node000008" class="node">
<title>Node8</title>
<g id="a_Node000008"><a xlink:href="MaxFlowSolver_8hpp.html" target="_top" xlink:title=" ">
<polygon fill="white" stroke="#666666" points="357.5,-74 207.5,-74 207.5,-55 357.5,-55 357.5,-74"/>
<text text-anchor="middle" x="282.5" y="-62" font-family="Helvetica,sans-Serif" font-size="10.00">solvers/MaxFlowSolver.hpp</text>
</a>
</g>
</g>
<!-- Node2&#45;&gt;Node8 -->
<g id="edge7_Node000002_Node000008" class="edge">
<title>Node2&#45;&gt;Node8</title>
<g id="a_edge7_Node000002_Node000008"><a xlink:title=" ">
<path fill="none" stroke="#63b8ff" d="M326.75,-109.75C319.03,-102.03 307.6,-90.6 298.28,-81.28"/>
<polygon fill="#63b8ff" stroke="#63b8ff" points="300.64,-78.69 291.09,-74.09 295.69,-83.64 300.64,-78.69"/>
</a>
</g>
</g>
<!-- Node9 -->
<g id="Node000009" class="node">
<title>Node9</title>
<g id="a_Node000009"><a xlink:title=" ">
<polygon fill="#e0e0e0" stroke="#999999" points="433.5,-74 375.5,-74 375.5,-55 433.5,-55 433.5,-74"/>
<text text-anchor="middle" x="404.5" y="-62" font-family="Helvetica,sans-Serif" font-size="10.00">memory</text>
</a>
</g>
</g>
<!-- Node2&#45;&gt;Node9 -->
<g id="edge9_Node000002_Node000009" class="edge">
<title>Node2&#45;&gt;Node9</title>
<g id="a_edge9_Node000002_Node000009"><a xlink:title=" ">
<path fill="none" stroke="#63b8ff" d="M346.59,-109.98C356.99,-102 372.76,-89.88 385.22,-80.31"/>
<polygon fill="#63b8ff" stroke="#63b8ff" points="387.41,-83.04 393.21,-74.17 383.15,-77.49 387.41,-83.04"/>
</a>
</g>
</g>
<!-- Node2&#45;&gt;Node10 -->
<g id="edge11_Node000002_Node000010" class="edge">
<title>Node2&#45;&gt;Node10</title>
<g id="a_edge11_Node000002_Node000010"><a xlink:title=" ">
<path fill="none" stroke="#63b8ff" d="M359.76,-109.98C384.82,-101.19 424.13,-87.39 452.33,-77.49"/>
<polygon fill="#63b8ff" stroke="#63b8ff" points="453.52,-80.78 461.8,-74.17 451.2,-74.18 453.52,-80.78"/>
</a>
</g>
</g>
<!-- Node4 -->
<g id="Node000004" class="node">
<title>Node4</title>
<g id="a_Node000004"><a xlink:title=" ">
<polygon fill="#e0e0e0" stroke="#999999" points="130,-19 83,-19 83,0 130,0 130,-19"/>
<text text-anchor="middle" x="106.5" y="-7" font-family="Helvetica,sans-Serif" font-size="10.00">vector</text>
</a>
</g>
</g>
<!-- Node3&#45;&gt;Node4 -->
<g id="edge3_Node000003_Node000004" class="edge">
<title>Node3&#45;&gt;Node4</title>
<g id="a_edge3_Node000003_Node000004"><a xlink:title=" ">
<path fill="none" stroke="#63b8ff" d="M123.2,-54.75C120.52,-47.65 116.65,-37.4 113.31,-28.56"/>
<polygon fill="#63b8ff" stroke="#63b8ff" points="116.55,-27.21 109.74,-19.09 110,-29.68 116.55,-27.21"/>
</a>
</g>
</g>
<!-- Node3&#45;&gt;Node5 -->
<g id="edge4_Node000003_Node000005" class="edge">
<title>Node3&#45;&gt;Node5</title>
<g id="a_edge4_Node000003_Node000005"><a xlink:title=" ">
<path fill="none" stroke="#63b8ff" d="M111.4,-54.98C96.68,-46.69 74.08,-33.94 56.83,-24.22"/>
<polygon fill="#63b8ff" stroke="#63b8ff" points="58.31,-21.03 47.88,-19.17 54.87,-27.13 58.31,-21.03"/>
</a>
</g>
</g>
<!-- Node6 -->
<g id="Node000006" class="node">
<title>Node6</title>
<g id="a_Node000006"><a xlink:title=" ">
<polygon fill="#e0e0e0" stroke="#999999" points="241,-19 148,-19 148,0 241,0 241,-19"/>
<text text-anchor="middle" x="194.5" y="-7" font-family="Helvetica,sans-Serif" font-size="10.00">unordered_map</text>
</a>
</g>
</g>
<!-- Node3&#45;&gt;Node6 -->
<g id="edge5_Node000003_Node000006" class="edge">
<title>Node3&#45;&gt;Node6</title>
<g id="a_edge5_Node000003_Node000006"><a xlink:title=" ">
<path fill="none" stroke="#63b8ff" d="M137.43,-54.98C147.58,-47.07 162.92,-35.11 175.15,-25.58"/>
<polygon fill="#63b8ff" stroke="#63b8ff" points="177.64,-28.08 183.38,-19.17 173.34,-22.56 177.64,-28.08"/>
</a>
</g>
</g>
<!-- Node7 -->
<g id="Node000007" class="node">
<title>Node7</title>
<g id="a_Node000007"><a xlink:title=" ">
<polygon fill="#e0e0e0" stroke="#999999" points="309.5,-19 259.5,-19 259.5,0 309.5,0 309.5,-19"/>
<text text-anchor="middle" x="284.5" y="-7" font-family="Helvetica,sans-Serif" font-size="10.00">cstdint</text>
</a>
</g>
</g>
<!-- Node3&#45;&gt;Node7 -->
<g id="edge6_Node000003_Node000007" class="edge">
<title>Node3&#45;&gt;Node7</title>
<g id="a_edge6_Node000003_Node000007"><a xlink:title=" ">
<path fill="none" stroke="#63b8ff" d="M151.89,-54.98C178.45,-46.07 220.34,-32.02 249.92,-22.1"/>
<polygon fill="#63b8ff" stroke="#63b8ff" points="251.07,-25.41 259.44,-18.91 248.84,-18.77 251.07,-25.41"/>
</a>
</g>
</g>
<!-- Node8&#45;&gt;Node7 -->
<g id="edge8_Node000008_Node000007" class="edge">
<title>Node8&#45;&gt;Node7</title>
<g id="a_edge8_Node000008_Node000007"><a xlink:title=" ">
<path fill="none" stroke="#63b8ff" d="M282.83,-54.75C283.09,-47.8 283.47,-37.85 283.8,-29.13"/>
<polygon fill="#63b8ff" stroke="#63b8ff" points="287.3,-29.21 284.18,-19.09 280.3,-28.95 287.3,-29.21"/>
</a>
</g>
</g>
</g>
</svg>
