<?xml version="1.0" encoding="UTF-8" standalone="no"?>
<!DOCTYPE svg PUBLIC "-//W3C//DTD SVG 1.1//EN"
 "http://www.w3.org/Graphics/SVG/1.1/DTD/svg11.dtd">
<!-- Generated by graphviz version 2.43.0 (0)
 -->
<!-- Title: Graphical Class Hierarchy Pages: 1 -->
<svg width="278pt" height="64pt"
 viewBox="0.00 0.00 278.00 64.00" xmlns="http://www.w3.org/2000/svg" xmlns:xlink="http://www.w3.org/1999/xlink">
<g id="graph0" class="graph" transform="scale(1 1) rotate(0) translate(4 60)">
<title>Graphical Class Hierarchy</title>
<!-- Node0 -->
<g id="Node000000" class="node">
<title>Node0</title>
<g id="a_Node000000"><a xlink:href="classMaxFlowSolver.html" target="_top" xlink:title="Abstract interface for a binary max&#45;flow / QPBO solver.">
<polygon fill="white" stroke="#666666" points="120,-37 0,-37 0,-18 120,-18 120,-37"/>
<text text-anchor="middle" x="60" y="-25" font-family="Helvetica,sans-Serif" font-size="10.00">MaxFlowSolver&lt; T &gt;</text>
</a>
</g>
</g>
<!-- Node1 -->
<g id="Node000001" class="node">
<title>Node1</title>
<g id="a_Node000001"><a xlink:href="classBKSolver.html" target="_top" xlink:title="MaxFlowSolver backed by the Boykov–Kolmogorov max&#45;flow algorithm.">
<polygon fill="white" stroke="#666666" points="257.5,-56 168.5,-56 168.5,-37 257.5,-37 257.5,-56"/>
<text text-anchor="middle" x="213" y="-44" font-family="Helvetica,sans-Serif" font-size="10.00">BKSolver&lt; T &gt;</text>
</a>
</g>
</g>
<!-- Node0&#45;&gt;Node1 -->
<g id="edge4_Node000000_Node000001" class="edge">
<title>Node0&#45;&gt;Node1</title>
<g id="a_edge4_Node000000_Node000001"><a xlink:title=" ">
<path fill="none" stroke="#63b8ff" d="M130.5,-36.24C143.38,-37.87 156.49,-39.52 168.33,-41.01"/>
<polygon fill="#63b8ff" stroke="#63b8ff" points="130.6,-32.73 120.25,-34.95 129.73,-39.68 130.6,-32.73"/>
</a>
</g>
</g>
<!-- Node2 -->
<g id="Node000002" class="node">
<title>Node2</title>
<g id="a_Node000002"><a xlink:href="classORToolsSolver.html" target="_top" xlink:title="MaxFlowSolver backed by Google OR&#45;Tools SimpleMaxFlow.">
<polygon fill="white" stroke="#666666" points="270,-19 156,-19 156,0 270,0 270,-19"/>
<text text-anchor="middle" x="213" y="-7" font-family="Helvetica,sans-Serif" font-size="10.00">ORToolsSolver&lt; T &gt;</text>
</a>
</g>
</g>
<!-- Node0&#45;&gt;Node2 -->
<g id="edge5_Node000000_Node000002" class="edge">
<title>Node0&#45;&gt;Node2</title>
<g id="a_edge5_Node000000_Node000002"><a xlink:title=" ">
<path fill="none" stroke="#63b8ff" d="M130.25,-19.25C138.84,-18.22 147.53,-17.19 155.89,-16.19"/>
<polygon fill="#63b8ff" stroke="#63b8ff" points="129.76,-15.78 120.25,-20.44 130.59,-22.73 129.76,-15.78"/>
</a>
</g>
</g>
</g>
</svg>
