<?xml version="1.0" encoding="UTF-8" standalone="no"?>
<!DOCTYPE svg PUBLIC "-//W3C//DTD SVG 1.1//EN"
 "http://www.w3.org/Graphics/SVG/1.1/DTD/svg11.dtd">
<!-- Generated by graphviz version 2.43.0 (0)
 -->
<!-- Title: src/strategies/SequentialStrategy.hpp Pages: 1 -->
<svg width="558pt" height="203pt"
 viewBox="0.00 0.00 558.00 203.00" xmlns="http://www.w3.org/2000/svg" xmlns:xlink="http://www.w3.org/1999/xlink">
<g id="graph0" class="graph" transform="scale(1 1) rotate(0) translate(4 199)">
<title>src/strategies/SequentialStrategy.hpp</title>
<!-- Node1 -->
<g id="Node000001" class="node">
<title>Node1</title>
<g id="a_Node000001"><a xlink:title=" ">
<polygon fill="#999999" stroke="#666666" points="440,-195 303,-195 303,-165 440,-165 440,-195"/>
<text text-anchor="start" x="311" y="-183" font-family="Helvetica,sans-Serif" font-size="10.00">src/strategies/Sequential</text>
<text text-anchor="middle" x="371.5" y="-172" font-family="Helvetica,sans-Serif" font-size="10.00">Strategy.hpp</text>
</a>
</g>
</g>
<!-- Node2 -->
<g id="Node000002" class="node">
<title>Node2</title>
<g id="a_Node000002"><a xlink:href="AlphaExpansion_8hpp.html" target="_top" xlink:title=" ">
<polygon fill="white" stroke="#666666" points="352.5,-129 212.5,-129 212.5,-110 352.5,-110 352.5,-129"/>
<text text-anchor="middle" x="282.5" y="-117" font-family="Helvetica,sans-Serif" font-size="10.00">core/AlphaExpansion.hpp</text>
</a>
</g>
</g>
<!-- Node1&#45;&gt;Node2 -->
<g id="edge1_Node000001_Node000002" class="edge">
<title>Node1&#45;&gt;Node2</title>
<g id="a_edge1_Node000001_Node000002"><a xlink:title=" ">
<path fill="none" stroke="#63b8ff" d="M349.96,-164.84C336.03,-155.68 317.97,-143.82 304.05,-134.66"/>
<polygon fill="#63b8ff" stroke="#63b8ff" points="305.85,-131.66 295.58,-129.09 302.01,-137.51 305.85,-131.66"/>
</a>
</g>
</g>
<!-- Node11 -->
<g id="Node000011" class="node">
<title>Node11</title>
<g id="a_Node000011"><a xlink:href="ExpansionStrategy_8hpp.html" target="_top" xlink:title=" ">
<polygon fill="white" stroke="#666666" points="550,-129 371,-129 371,-110 550,-110 550,-129"/>
<text text-anchor="middle" x="460.5" y="-117" font-family="Helvetica,sans-Serif" font-size="10.00">strategies/ExpansionStrategy.hpp</text>
</a>
</g>
</g>
<!-- Node1&#45;&gt;Node11 -->
<g id="edge12_Node000001_Node000011" class="edge">
<title>Node1&#45;&gt;Node11</title>
<g id="a_edge12_Node000001_Node000011"><a xlink:title=" ">
<path fill="none" stroke="#63b8ff" d="M393.04,-164.84C406.97,-155.68 425.03,-143.82 438.95,-134.66"/>
<polygon fill="#63b8ff" stroke="#63b8ff" points="440.99,-137.51 447.42,-129.09 437.15,-131.66 440.99,-137.51"/>
</a>
</g>
</g>
<!-- Node3 -->
<g id="Node000003" class="node">
<title>Node3</title>
<g id="a_Node000003"><a xlink:href="EnergyModel_8hpp.html" target="_top" xlink:title=" ">
<polygon fill="white" stroke="#666666" points="189,-74 64,-74 64,-55 189,-55 189,-74"/>
<text text-anchor="middle" x="126.5" y="-62" font-family="Helvetica,sans-Serif" font-size="10.00">core/EnergyModel.hpp</text>
</a>
</g>
</g>
<!-- Node2&#45;&gt;Node3 -->
<g id="edge2_Node000002_Node000003" class="edge">
<title>Node2&#45;&gt;Node3</title>
<g id="a_edge2_Node000002_Node000003"><a xlink:title=" ">
<path fill="none" stroke="#63b8ff" d="M257.44,-109.98C231.47,-101.16 190.69,-87.31 161.54,-77.41"/>
<polygon fill="#63b8ff" stroke="#63b8ff" points="162.35,-73.99 151.76,-74.08 160.1,-80.61 162.35,-73.99"/>
</a>
</g>
</g>
<!-- Node5 -->
<g id="Node000005" class="node">
<title>Node5</title>
<g id="a_Node000005"><a xlink:title=" ">
<polygon fill="#e0e0e0" stroke="#999999" points="65,-19 0,-19 0,0 65,0 65,-19"/>
<text text-anchor="middle" x="32.5" y="-7" font-family="Helvetica,sans-Serif" font-size="10.00">functional</text>
</a>
</g>
</g>
<!-- Node2&#45;&gt;Node5 -->
<g id="edge10_Node000002_Node000005" class="edge">
<title>Node2&#45;&gt;Node5</title>
<g id="a_edge10_Node000002_Node000005"><a xlink:title=" ">
<path fill="none" stroke="#63b8ff" d="M212.31,-112.3C154.61,-105.86 78.72,-93.89 55.5,-74 42.57,-62.92 36.91,-43.99 34.43,-29.67"/>
<polygon fill="#63b8ff" stroke="#63b8ff" points="37.85,-28.85 33.05,-19.41 30.92,-29.79 37.85,-28.85"/>
</a>
</g>
</g>
<!-- Node8 -->
<g id="Node000008" class="node">
<title>Node8</title>
<g id="a_Node000008"><a xlink:href="MaxFlowSolver_8hpp.html" target="_top" xlink:title=" ">
<polygon fill="white" stroke="#666666" points="357.5,-74 207.5,-74 207.5,-55 357.5,-55 357.5,-74"/>
<text text-anchor="middle" x="282.5" y="-62" font-family="Helvetica,sans-Serif" font-size="10.00">solvers/MaxFlowSolver.hpp</text>
</a>
</g>
</g>
<!-- Node2&#45;&gt;Node8 -->
<g id="edge7_Node000002_Node000008" class="edge">
<title>Node2&#45;&gt;Node8</title>
<g id="a_edge7_Node000002_Node000008"><a xlink:title=" ">
<path fill="none" stroke="#63b8ff" d="M282.5,-109.75C282.5,-102.8 282.5,-92.85 282.5,-84.13"/>
<polygon fill="#63b8ff" stroke="#63b8ff" points="286,-84.09 282.5,-74.09 279,-84.09 286,-84.09"/>
</a>
</g>
</g>
<!-- Node9 -->
<g id="Node000009" class="node">
<title>Node9</title>
<g id="a_Node000009"><a xlink:title=" ">
<polygon fill="#e0e0e0" stroke="#999999" points="433.5,-74 375.5,-74 375.5,-55 433.5,-55 433.5,-74"/>
<text text-anchor="middle" x="404.5" y="-62" font-family="Helvetica,sans-Serif" font-size="10.00">memory</text>
</a>
</g>
</g>
<!-- Node2&#45;&gt;Node9 -->
<g id="edge9_Node000002_Node000009" class="edge">
<title>Node2&#45;&gt;Node9</title>
<g id="a_edge9_Node000002_Node000009"><a xlink:title=" ">
<path fill="none" stroke="#63b8ff" d="M302.1,-109.98C321.82,-101.42 352.45,-88.11 375.08,-78.28"/>
<polygon fill="#63b8ff" stroke="#63b8ff" points="376.76,-81.37 384.54,-74.17 373.98,-74.94 376.76,-81.37"/>
</a>
</g>
</g>
<!-- Node10 -->
<g id="Node000010" class="node">
<title>Node10</title>
<g id="a_Node000010"><a xlink:title=" ">
<polygon fill="#e0e0e0" stroke="#999999" points="521,-74 452,-74 452,-55 521,-55 521,-74"/>
<text text-anchor="middle" x="486.5" y="-62" font-family="Helvetica,sans-Serif" font-size="10.00">type_traits</text>
</a>
</g>
</g>
<!-- Node2&#45;&gt;Node10 -->
<g id="edge11_Node000002_Node000010" class="edge">
<title>Node2&#45;&gt;Node10</title>
<g id="a_edge11_Node000002_Node000010"><a xlink:title=" ">
<path fill="none" stroke="#63b8ff" d="M315.28,-109.98C350.12,-100.93 405.37,-86.58 443.64,-76.64"/>
<polygon fill="#63b8ff" stroke="#63b8ff" points="444.67,-79.98 453.47,-74.08 442.91,-73.21 444.67,-79.98"/>
</a>
</g>
</g>
<!-- Node4 -->
<g id="Node000004" class="node">
<title>Node4</title>
<g id="a_Node000004"><a xlink:title=" ">
<polygon fill="#e0e0e0" stroke="#999999" points="130,-19 83,-19 83,0 130,0 130,-19"/>
<text text-anchor="middle" x="106.5" y="-7" font-family="Helvetica,sans-Serif" font-size="10.00">vector</text>
</a>
</g>
</g>
<!-- Node3&#45;&gt;Node4 -->
<g id="edge3_Node000003_Node000004" class="edge">
<title>Node3&#45;&gt;Node4</title>
<g id="a_edge3_Node000003_Node000004"><a xlink:title=" ">
<path fill="none" stroke="#63b8ff" d="M123.2,-54.75C120.52,-47.65 116.65,-37.4 113.31,-28.56"/>
<polygon fill="#63b8ff" stroke="#63b8ff" points="116.55,-27.21 109.74,-19.09 110,-29.68 116.55,-27.21"/>
</a>
</g>
</g>
<!-- Node3&#45;&gt;Node5 -->
<g id="edge4_Node000003_Node000005" class="edge">
<title>Node3&#45;&gt;Node5</title>
<g id="a_edge4_Node000003_Node000005"><a xlink:title=" ">
<path fill="none" stroke="#63b8ff" d="M111.4,-54.98C96.68,-46.69 74.08,-33.94 56.83,-24.22"/>
<polygon fill="#63b8ff" stroke="#63b8ff" points="58.31,-21.03 47.88,-19.17 54.87,-27.13 58.31,-21.03"/>
</a>
</g>
</g>
<!-- Node6 -->
<g id="Node000006" class="node">
<title>Node6</title>
<g id="a_Node000006"><a xlink:title=" ">
<polygon fill="#e0e0e0" stroke="#999999" points="241,-19 148,-19 148,0 241,0 241,-19"/>
<text text-anchor="middle" x="194.5" y="-7" font-family="Helvetica,sans-Serif" font-size="10.00">unordered_map</text>
</a>
</g>
</g>
<!-- Node3&#45;&gt;Node6 -->
<g id="edge5_Node000003_Node000006" class="edge">
<title>Node3&#45;&gt;Node6</title>
<g id="a_edge5_Node000003_Node000006"><a xlink:title=" ">
<path fill="none" stroke="#63b8ff" d="M137.43,-54.98C147.58,-47.07 162.92,-35.11 175.15,-25.58"/>
<polygon fill="#63b8ff" stroke="#63b8ff" points="177.64,-28.08 183.38,-19.17 173.34,-22.56 177.64,-28.08"/>
</a>
</g>
</g>
<!-- Node7 -->
<g id="Node000007" class="node">
<title>Node7</title>
<g id="a_Node000007"><a xlink:title=" ">
<polygon fill="#e0e0e0" stroke="#999999" points="309.5,-19 259.5,-19 259.5,0 309.5,0 309.5,-19"/>
<text text-anchor="middle" x="284.5" y="-7" font-family="Helvetica,sans-Serif" font-size="10.00">cstdint</text>
</a>
</g>
</g>
<!-- Node3&#45;&gt;Node7 -->
<g id="edge6_Node000003_Node000007" class="edge">
<title>Node3&#45;&gt;Node7</title>
<g id="a_edge6_Node000003_Node000007"><a xlink:title=" ">
<path fill="none" stroke="#63b8ff" d="M151.89,-54.98C178.45,-46.07 220.34,-32.02 249.92,-22.1"/>
<polygon fill="#63b8ff" stroke="#63b8ff" points="251.07,-25.41 259.44,-18.91 248.84,-18.77 251.07,-25.41"/>
</a>
</g>
</g>
<!-- Node8&#45;&gt;Node7 -->
<g id="edge8_Node000008_Node000007" class="edge">
<title>Node8&#45;&gt;Node7</title>
<g id="a_edge8_Node000008_Node000007"><a xlink:title=" ">
<path fill="none" stroke="#63b8ff" d="M282.83,-54.75C283.09,-47.8 283.47,-37.85 283.8,-29.13"/>
<polygon fill="#63b8ff" stroke="#63b8ff" points="287.3,-29.21 284.18,-19.09 280.3,-28.95 287.3,-29.21"/>
</a>
</g>
</g>
</g>
</svg>
